<svg width="219" height="219" viewBox="0 0 219 219" fill="none" xmlns="http://www.w3.org/2000/svg">
<rect width="219" height="219" rx="50" fill="#FBFFC9"/>
<path d="M135.886 45.942L150.636 53.6825C166.504 62.0099 174.438 66.1736 178.844 73.6556C183.25 81.1376 183.25 90.4479 183.25 109.069V109.931C183.25 128.552 183.25 137.863 178.844 145.345C174.438 152.827 166.504 156.99 150.636 165.318L135.886 173.058C122.938 179.852 116.464 183.25 109.5 183.25C102.536 183.25 96.062 179.852 83.1144 173.058L68.3644 165.318C52.4959 156.99 44.5616 152.827 40.1558 145.345C35.75 137.863 35.75 128.552 35.75 109.931V109.069C35.75 90.4479 35.75 81.1376 40.1558 73.6556C44.5616 66.1736 52.4959 62.0099 68.3644 53.6825L83.1144 45.942C96.062 39.1474 102.536 35.75 109.5 35.75C116.464 35.75 122.938 39.1474 135.886 45.942Z" stroke="#1C274C" stroke-width="3.75" stroke-linecap="round"/>
<path d="M175.875 76.3125L146.375 91.0625M146.375 91.0625C146.375 91.0625 144.128 92.1862 142.688 92.9062C129.727 99.3867 109.5 109.5 109.5 109.5M146.375 91.0625V116.875M146.375 91.0625L76.3125 54.1875M109.5 109.5L43.125 76.3125M109.5 109.5V179.562" stroke="#1C274C" stroke-width="3.75" stroke-linecap="round"/>
</svg>
